<?xml version="1.0" encoding="UTF-8" standalone="no"?>
<!DOCTYPE svg PUBLIC "-//W3C//DTD SVG 1.1//EN" "http://www.w3.org/Graphics/SVG/1.1/DTD/svg11.dtd">
<svg width="100%" height="100%" viewBox="0 0 50 50" version="1.1" xmlns="http://www.w3.org/2000/svg" xmlns:xlink="http://www.w3.org/1999/xlink" xml:space="preserve" xmlns:serif="http://www.serif.com/" style="fill-rule:evenodd;clip-rule:evenodd;stroke-linejoin:round;stroke-miterlimit:2;">
    <g transform="matrix(0.108949,0,0,0.108949,24.9884,25.0412)">
        <g transform="matrix(1,0,0,1,-242,-242)">
            <path d="M416.648,33.234C392.254,8.883 352.75,8.883 328.355,33.234L306.254,55.457L70.984,290.602L70.484,291.105C70.363,291.227 70.363,291.355 70.234,291.355C69.984,291.73 69.609,292.102 69.363,292.477C69.363,292.602 69.234,292.602 69.234,292.727C68.984,293.102 68.863,293.352 68.609,293.727C68.488,293.852 68.488,293.973 68.363,294.102C68.238,294.477 68.113,294.727 67.984,295.102C67.984,295.223 67.863,295.223 67.863,295.352L15.664,452.32C14.133,456.789 15.297,461.738 18.66,465.055C21.023,467.387 24.211,468.691 27.527,468.68C28.883,468.656 30.227,468.445 31.523,468.055L188.371,415.73C188.492,415.73 188.492,415.73 188.621,415.609C189.016,415.492 189.394,415.324 189.742,415.105C189.84,415.094 189.926,415.051 189.996,414.984C190.367,414.734 190.867,414.48 191.242,414.23C191.613,413.984 191.992,413.609 192.367,413.359C192.492,413.23 192.613,413.23 192.613,413.109C192.742,412.984 192.992,412.863 193.117,412.609L450.488,155.238C474.84,130.844 474.84,91.34 450.488,66.949L416.648,33.234ZM184.375,386.383L97.461,299.473L314.996,81.938L401.91,168.848L184.375,386.383ZM85.219,322.574L161.148,398.5L47.133,436.461L85.219,322.574ZM432.883,137.754L419.644,151.117L332.726,64.199L346.094,50.84C360.715,36.231 384.414,36.231 399.039,50.84L433.004,84.805C447.515,99.492 447.461,123.137 432.883,137.754Z" style="fill:rgb(85,56,156);fill-rule:nonzero;"/>
        </g>
    </g>
</svg>
