<?xml version="1.0" encoding="UTF-8" standalone="no"?>
<!DOCTYPE svg PUBLIC "-//W3C//DTD SVG 1.1//EN" "http://www.w3.org/Graphics/SVG/1.1/DTD/svg11.dtd">
<svg width="100%" height="100%" viewBox="0 0 50 50" version="1.1" xmlns="http://www.w3.org/2000/svg" xmlns:xlink="http://www.w3.org/1999/xlink" xml:space="preserve" xmlns:serif="http://www.serif.com/" style="fill-rule:evenodd;clip-rule:evenodd;stroke-linejoin:round;stroke-miterlimit:2;">
    <g transform="matrix(0.110416,0,0,0.110416,25,25)">
        <g transform="matrix(1,0,0,1,-216.625,-216.625)">
            <g>
                <g>
                    <path d="M418.4,192.331C438.2,172.531 438.2,140.431 418.4,120.631L418.3,120.531L339.7,42.231C319.9,22.431 287.8,22.531 267.9,42.231L98.4,211.831L44.2,265.931C24.4,285.631 24.4,317.731 44.1,337.531L92.4,385.831L10,385.831C4.5,385.831 0,390.331 0,395.831C0,401.331 4.5,405.831 10,405.831L307.4,405.831C312.9,405.831 317.4,401.331 317.4,395.831C317.4,390.331 312.9,385.831 307.4,385.831L225,385.831L248.9,362.131L418.4,192.331ZM196.7,385.831L120.6,385.831L58.3,323.431C46.3,311.431 46.4,292.031 58.3,280.031L105.4,233.031L227.6,355.031L196.7,385.831ZM119.6,218.931L282.1,56.431C294.1,44.431 313.6,44.431 325.6,56.431L404.2,134.831C416.2,146.831 416.2,166.231 404.2,178.331L241.8,341.131L119.6,218.931Z" style="fill:rgb(85,56,156);fill-rule:nonzero;"/>
                </g>
            </g>
        </g>
    </g>
</svg>
