<?xml version="1.0" encoding="UTF-8" standalone="no"?>
<!DOCTYPE svg PUBLIC "-//W3C//DTD SVG 1.1//EN" "http://www.w3.org/Graphics/SVG/1.1/DTD/svg11.dtd">
<svg width="100%" height="100%" viewBox="0 0 50 50" version="1.1" xmlns="http://www.w3.org/2000/svg" xmlns:xlink="http://www.w3.org/1999/xlink" xml:space="preserve" xmlns:serif="http://www.serif.com/" style="fill-rule:evenodd;clip-rule:evenodd;stroke-linejoin:round;stroke-miterlimit:2;">
    <g transform="matrix(0.0963301,0,0,0.0963301,25,25)">
        <g transform="matrix(1,0,0,1,-256.002,-256.002)">
            <g transform="matrix(0.990517,0,0,0.990517,256.002,256.002)">
                <g transform="matrix(1,0,0,1,-256,-256)">
                    <g>
                        <g>
                            <g>
                                <path d="M491.91,368.263L479.444,368.263C481.974,363.877 483.429,358.796 483.429,353.38L483.429,89.899C483.429,73.417 470.021,60.01 453.539,60.01L383.064,60.01C378.919,60.01 375.561,63.369 375.561,67.513C375.561,71.656 378.919,75.016 383.064,75.016L453.539,75.016C461.746,75.016 468.423,81.693 468.423,89.899L468.423,353.38C468.423,361.587 461.746,368.263 453.539,368.263L58.461,368.263C50.254,368.263 43.577,361.586 43.577,353.38L43.577,89.899C43.577,81.692 50.254,75.016 58.461,75.016L348.04,75.016C352.184,75.016 355.543,71.656 355.543,67.513C355.543,63.369 352.184,60.01 348.04,60.01L58.461,60.01C41.979,60.01 28.571,73.418 28.571,89.899L28.571,353.38C28.571,358.797 30.026,363.877 32.556,368.263L20.09,368.263C9.013,368.263 0,377.276 0,388.353C0,423.443 28.548,451.99 63.637,451.99L96.284,451.99C100.429,451.99 103.788,448.631 103.788,444.487C103.788,440.344 100.429,436.984 96.284,436.984L63.637,436.984C36.822,436.985 15.006,415.169 15.006,388.353C15.006,385.55 17.286,383.269 20.09,383.269L202.49,383.269L202.49,390.574C202.49,402.91 212.525,412.945 224.861,412.945L287.138,412.945C299.474,412.945 309.509,402.909 309.509,390.574L309.509,383.269L491.909,383.269C494.713,383.269 496.993,385.55 496.993,388.353C496.993,415.168 475.177,436.984 448.362,436.984L130.95,436.984C126.805,436.984 123.447,440.344 123.447,444.487C123.447,448.631 126.805,451.99 130.95,451.99L448.362,451.99C483.451,451.99 511.999,423.443 511.999,388.353C512,377.276 502.987,368.263 491.91,368.263ZM294.504,390.574C294.504,394.636 291.199,397.939 287.139,397.939L224.862,397.939C220.801,397.939 217.497,394.635 217.497,390.574L217.497,383.269L294.505,383.269L294.505,390.574L294.504,390.574Z" style="fill:rgb(85,56,156);fill-rule:nonzero;"/>
                                <circle cx="110.595" cy="123.681" r="7.503" style="fill:rgb(85,56,156);"/>
                                <circle cx="140.331" cy="123.681" r="7.503" style="fill:rgb(85,56,156);"/>
                                <circle cx="170.066" cy="123.681" r="7.503" style="fill:rgb(85,56,156);"/>
                                <path d="M60.78,103.212L60.782,340.064C60.782,348.836 67.918,355.972 76.688,355.972L435.312,355.972C444.083,355.972 451.218,348.836 451.218,340.064L451.22,103.212C451.22,94.442 444.084,87.306 435.314,87.306L76.686,87.306C67.916,87.306 60.78,94.442 60.78,103.212ZM436.212,340.064C436.212,340.562 435.808,340.966 435.312,340.966L76.688,340.966C76.192,340.966 75.788,340.562 75.788,340.064L75.788,160.056L177.848,160.056C164.458,177.011 156.457,198.407 156.457,221.639C156.457,276.526 201.111,321.181 255.999,321.181C310.887,321.181 355.542,276.526 355.542,221.639C355.542,198.407 347.541,177.011 334.151,160.056L436.212,160.056L436.212,340.064ZM256,137.103C302.614,137.103 340.537,175.026 340.537,221.639C340.537,268.252 302.614,306.175 256,306.175C209.387,306.175 171.464,268.252 171.464,221.639C171.464,175.026 209.387,137.103 256,137.103ZM435.312,102.313C435.808,102.313 436.212,102.717 436.212,103.214L436.212,145.05L319.51,145.05C302.263,130.724 280.12,122.098 255.999,122.098C231.878,122.098 209.735,130.725 192.489,145.05L75.788,145.05L75.788,103.214C75.788,102.717 76.192,102.313 76.688,102.313L435.312,102.313Z" style="fill:rgb(85,56,156);fill-rule:nonzero;"/>
                                <path d="M222.058,187.297C230.733,178.826 242.188,174.16 254.315,174.16C278.158,174.16 297.836,192.326 300.241,215.542L297.721,212.227C295.214,208.929 290.508,208.285 287.207,210.793C283.907,213.3 283.266,218.007 285.772,221.307L300.883,241.191C302.303,243.058 304.513,244.154 306.858,244.154C309.203,244.154 311.413,243.058 312.832,241.191L327.943,221.307C330.45,218.007 329.807,213.3 326.508,210.793C323.208,208.284 318.501,208.929 315.994,212.227L315.092,213.414C311.642,182.927 285.707,159.154 254.313,159.154C238.245,159.154 223.066,165.336 211.571,176.56C208.607,179.456 208.55,184.206 211.445,187.17C214.341,190.134 219.09,190.193 222.058,187.297Z" style="fill:rgb(85,56,156);fill-rule:nonzero;"/>
                                <path d="M257.685,284.124C273.753,284.124 288.932,277.942 300.427,266.717C303.391,263.822 303.448,259.072 300.553,256.108C297.658,253.145 292.908,253.086 289.943,255.982C281.268,264.452 269.813,269.118 257.686,269.118C233.843,269.118 214.165,250.953 211.76,227.736L214.28,231.052C216.787,234.35 221.493,234.993 224.794,232.485C228.094,229.978 228.735,225.271 226.229,221.972L211.118,202.088C209.698,200.221 207.488,199.125 205.143,199.125C202.798,199.125 200.588,200.221 199.169,202.088L184.055,221.971C181.548,225.27 182.191,229.977 185.49,232.484C186.847,233.516 188.442,234.014 190.024,234.014C192.289,234.014 194.528,232.993 196.004,231.051L196.906,229.864C200.356,260.352 226.291,284.124 257.685,284.124Z" style="fill:rgb(85,56,156);fill-rule:nonzero;"/>
                            </g>
                        </g>
                    </g>
                </g>
            </g>
        </g>
    </g>
</svg>
